<svg xmlns="http://www.w3.org/2000/svg" width="42" height="42" viewBox="0 0 42 42"><g><g><path fill="#b4931c" d="M22 1.999c11.046 0 20 8.954 20 20s-8.954 20-20 20S2 33.045 2 22s8.954-20 20-20z"/></g><g><path fill="#ddb423" d="M20 0c11.046 0 20 8.954 20 20 0 11.045-8.954 20-20 20S0 31.044 0 20C0 8.953 8.954 0 20 0z"/></g><g><path fill="#fff" d="M40.381 6.63a1.568 1.568 0 0 0-2.24 0L19.156 25.95l-7.297-7.426a1.564 1.564 0 0 0-2.241 0 1.63 1.63 0 0 0 0 2.279l8.417 8.566a1.563 1.563 0 0 0 2.241 0L40.381 8.91a1.632 1.632 0 0 0 0-2.28z"/></g></g></svg>