<svg xmlns="http://www.w3.org/2000/svg" width="42" height="42" viewBox="0 0 42 42"><defs><linearGradient id="izvsa" x1="0" x2="40" y1="20" y2="20" gradientUnits="userSpaceOnUse"><stop offset="0" stop-color="#539a32"/><stop offset=".51" stop-color="#60b539"/><stop offset="1" stop-color="#539a32"/></linearGradient></defs><g><g><path fill="#348a0c" d="M22 2c11.046 0 20 8.954 20 20 0 11.045-8.954 20-20 20S2 33.045 2 22C2 10.953 10.954 2 22 2z"/></g><g><path fill="#264999" d="M20 0c11.046 0 20 8.954 20 20 0 11.045-8.954 20-20 20S0 31.045 0 20C0 8.954 8.954 0 20 0z"/><path fill="url(#izvsa)" d="M20 0c11.046 0 20 8.954 20 20 0 11.045-8.954 20-20 20S0 31.045 0 20C0 8.954 8.954 0 20 0z"/></g><g><path fill="#fff" d="M40.381 6.63a1.565 1.565 0 0 0-2.24 0L19.156 25.95l-7.297-7.426a1.564 1.564 0 0 0-2.241 0 1.631 1.631 0 0 0 0 2.28l8.417 8.564a1.56 1.56 0 0 0 2.241 0L40.381 8.91a1.632 1.632 0 0 0 0-2.28z"/></g></g></svg>